<svg id="圖層_1" data-name="圖層 1" xmlns="http://www.w3.org/2000/svg" viewBox="0 0 256 256"><defs><style>.cls-1{fill:#fff;}.cls-2{fill:#3c3c3c;}</style></defs><title>QR</title><rect class="cls-1" width="256" height="256"/><rect class="cls-2" x="57.33" y="57.33" width="22.56" height="22.56"/><path class="cls-2" d="M17.73,17.73V119.49H119.49V17.73Zm83.66,83.66H39.66V39.66h61.73Z" transform="translate(0)"/><rect class="cls-2" x="57.33" y="176.11" width="22.56" height="22.56"/><path class="cls-2" d="M119.49,238.27V136.51H17.73V238.27Zm-18.1-21.93H39.66V154.61h61.73Z" transform="translate(0)"/><rect class="cls-2" x="176.11" y="57.33" width="22.56" height="22.56"/><path class="cls-2" d="M238.27,17.73H136.51V119.49H238.27Zm-83.66,83.66V39.66h61.73v61.73Z" transform="translate(0)"/><polygon class="cls-2" points="216.13 136.51 216.13 158.23 198.67 158.23 198.67 136.51 154.4 136.51 150.14 136.51 136.51 136.51 136.51 238.26 154.4 238.26 154.4 180.37 176.11 180.37 176.11 198.67 216.13 198.67 238.26 198.67 238.26 158.23 238.26 136.51 216.13 136.51"/><rect class="cls-2" x="176.11" y="216.13" width="22.14" height="22.14"/><rect class="cls-2" x="216.13" y="216.13" width="22.14" height="22.14"/></svg>